<svg width="25" height="20" viewBox="0 0 25 20" fill="none" xmlns="http://www.w3.org/2000/svg">
<path d="M21.125 12.0742C22.6432 13.2393 24 16.1729 24 17.9804C24 18.5435 23.6 19 23.1066 19H22.5625M16.8125 7.29849C17.7946 6.71493 18.4554 5.62423 18.4554 4.375C18.4554 3.12577 17.7946 2.03507 16.8125 1.45152M1.89337 19H17.6304C18.1238 19 18.5238 18.5435 18.5238 17.9804C18.5238 14.4408 15.6449 11.5714 9.7619 11.5714C3.87891 11.5714 1 14.4408 1 17.9804C1 18.5435 1.39998 19 1.89337 19ZM13.0476 4.375C13.0476 6.23896 11.5766 7.75 9.7619 7.75C7.94725 7.75 6.47619 6.23896 6.47619 4.375C6.47619 2.51104 7.94725 1 9.7619 1C11.5766 1 13.0476 2.51104 13.0476 4.375Z" stroke="black" stroke-width="2" stroke-linecap="round"/>
</svg>
