<svg width="58" height="58" viewBox="0 0 58 58" fill="none" xmlns="http://www.w3.org/2000/svg">
<g filter="url(#filter0_d_751_182)">
<path d="M54 25C54 38.8071 42.8071 50 29 50C15.1929 50 4 38.8071 4 25C4 11.1929 15.1929 0 29 0C42.8071 0 54 11.1929 54 25Z" fill="#CAF4FB"/>
</g>
<path fill-rule="evenodd" clip-rule="evenodd" d="M19 20.3333C19 18.527 20.4211 17 22.25 17H35.75C37.5789 17 39 18.527 39 20.3333V29.6667C39 31.473 37.5789 33 35.75 33H22.25C20.4211 33 19 31.473 19 29.6667V20.3333ZM22.3575 19L28.9428 23.7279C28.9637 23.7429 28.9831 23.7477 29 23.7477C29.0169 23.7477 29.0363 23.7429 29.0572 23.7279L35.6425 19H22.3575ZM37 20.4763C36.9676 20.5069 36.9329 20.5357 36.8957 20.5623L30.2236 25.3526C29.4898 25.8794 28.5102 25.8794 27.7764 25.3526L21.1043 20.5623C21.0671 20.5357 21.0324 20.5069 21 20.4763V29.6667C21 30.4376 21.5936 31 22.25 31H35.75C36.4064 31 37 30.4376 37 29.6667V20.4763Z" fill="black"/>
<defs>
<filter id="filter0_d_751_182" x="0" y="0" width="58" height="58" filterUnits="userSpaceOnUse" color-interpolation-filters="sRGB">
<feFlood flood-opacity="0" result="BackgroundImageFix"/>
<feColorMatrix in="SourceAlpha" type="matrix" values="0 0 0 0 0 0 0 0 0 0 0 0 0 0 0 0 0 0 127 0" result="hardAlpha"/>
<feOffset dy="4"/>
<feGaussianBlur stdDeviation="2"/>
<feComposite in2="hardAlpha" operator="out"/>
<feColorMatrix type="matrix" values="0 0 0 0 0 0 0 0 0 0 0 0 0 0 0 0 0 0 0.25 0"/>
<feBlend mode="normal" in2="BackgroundImageFix" result="effect1_dropShadow_751_182"/>
<feBlend mode="normal" in="SourceGraphic" in2="effect1_dropShadow_751_182" result="shape"/>
</filter>
</defs>
</svg>
