<svg width="58" height="58" viewBox="0 0 58 58" fill="none" xmlns="http://www.w3.org/2000/svg">
<g filter="url(#filter0_d_751_181)">
<circle cx="29" cy="25" r="25" fill="#CAF4FB"/>
</g>
<path d="M36.1999 26.6857C37.4672 27.6326 38.5999 30.0166 38.5999 31.4856C38.5999 31.9432 38.266 32.3142 37.8541 32.3142H37.3999M32.5999 22.8044C33.4197 22.3302 33.9713 21.4438 33.9713 20.4285C33.9713 19.4133 33.4197 18.5269 32.5999 18.0526M20.1457 32.3142H33.2827C33.6946 32.3142 34.0285 31.9432 34.0285 31.4856C34.0285 28.609 31.6252 26.2771 26.7142 26.2771C21.8032 26.2771 19.3999 28.609 19.3999 31.4856C19.3999 31.9432 19.7338 32.3142 20.1457 32.3142ZM29.457 20.4285C29.457 21.9434 28.229 23.1714 26.7142 23.1714C25.1993 23.1714 23.9713 21.9434 23.9713 20.4285C23.9713 18.9137 25.1993 17.6857 26.7142 17.6857C28.229 17.6857 29.457 18.9137 29.457 20.4285Z" stroke="black" stroke-width="2" stroke-linecap="round"/>
<defs>
<filter id="filter0_d_751_181" x="0" y="0" width="58" height="58" filterUnits="userSpaceOnUse" color-interpolation-filters="sRGB">
<feFlood flood-opacity="0" result="BackgroundImageFix"/>
<feColorMatrix in="SourceAlpha" type="matrix" values="0 0 0 0 0 0 0 0 0 0 0 0 0 0 0 0 0 0 127 0" result="hardAlpha"/>
<feOffset dy="4"/>
<feGaussianBlur stdDeviation="2"/>
<feComposite in2="hardAlpha" operator="out"/>
<feColorMatrix type="matrix" values="0 0 0 0 0 0 0 0 0 0 0 0 0 0 0 0 0 0 0.25 0"/>
<feBlend mode="normal" in2="BackgroundImageFix" result="effect1_dropShadow_751_181"/>
<feBlend mode="normal" in="SourceGraphic" in2="effect1_dropShadow_751_181" result="shape"/>
</filter>
</defs>
</svg>
