<svg width="38" height="38" viewBox="0 0 38 38" fill="none" xmlns="http://www.w3.org/2000/svg">
<circle cx="19" cy="19" r="19" fill="#DEDEDE"/>
<path d="M23.4265 16.15V14.225C23.4265 13.7145 23.222 13.2249 22.8579 12.8639C22.4939 12.5029 22.0001 12.3 21.4853 12.3H14.6912C14.1763 12.3 13.6826 12.5029 13.3186 12.8639C12.9545 13.2249 12.75 13.7145 12.75 14.225V25.775C12.75 26.2856 12.9545 26.7752 13.3186 27.1362C13.6826 27.4972 14.1763 27.7 14.6912 27.7H21.4853C22.0001 27.7 22.4939 27.4972 22.8579 27.1362C23.222 26.7752 23.4265 26.2856 23.4265 25.775V23.85M17.6029 20H29.25M29.25 20L26.3382 17.1125M29.25 20L26.3382 22.8875" stroke="black" stroke-width="2" stroke-linecap="round" stroke-linejoin="round"/>
</svg>
