<svg width="99" height="64" viewBox="0 0 99 64" fill="none" xmlns="http://www.w3.org/2000/svg">
<g filter="url(#filter0_d_701_137)">
<rect width="91" height="56" rx="15" fill="#BDEDF5"/>
<rect x="0.5" y="0.5" width="90" height="55" rx="14.5" stroke="black" stroke-opacity="0.5"/>
</g>
<path d="M40.9375 35.875V30.8125C40.9375 30.1912 41.4412 29.6875 42.0625 29.6875H49.9375C50.5588 29.6875 51.0625 30.1912 51.0625 30.8125V36.4375M51.0625 20.125V22.375C51.0625 22.9963 50.5588 23.5 49.9375 23.5L42.0625 23.5C41.4412 23.5 40.9375 22.9963 40.9375 22.375L40.9375 19M54.4351 22.9351L51.0649 19.5649C50.7032 19.2032 50.2127 19 49.7012 19H38.9286C37.8634 19 37 19.8634 37 20.9286V35.0714C37 36.1366 37.8634 37 38.9286 37H53.0714C54.1366 37 55 36.1366 55 35.0714V24.2988C55 23.7873 54.7968 23.2968 54.4351 22.9351Z" stroke="black" stroke-width="2" stroke-linecap="round"/>
<defs>
<filter id="filter0_d_701_137" x="0" y="0" width="99" height="64" filterUnits="userSpaceOnUse" color-interpolation-filters="sRGB">
<feFlood flood-opacity="0" result="BackgroundImageFix"/>
<feColorMatrix in="SourceAlpha" type="matrix" values="0 0 0 0 0 0 0 0 0 0 0 0 0 0 0 0 0 0 127 0" result="hardAlpha"/>
<feOffset dx="4" dy="4"/>
<feGaussianBlur stdDeviation="2"/>
<feComposite in2="hardAlpha" operator="out"/>
<feColorMatrix type="matrix" values="0 0 0 0 0 0 0 0 0 0 0 0 0 0 0 0 0 0 0.25 0"/>
<feBlend mode="normal" in2="BackgroundImageFix" result="effect1_dropShadow_701_137"/>
<feBlend mode="normal" in="SourceGraphic" in2="effect1_dropShadow_701_137" result="shape"/>
</filter>
</defs>
</svg>
